<?xml version="1.0" encoding="iso-8859-1"?>
<!-- Generator: Adobe Illustrator 19.0.0, SVG Export Plug-In . SVG Version: 6.00 Build 0)  -->
<svg version="1.1" id="Capa_1" xmlns="http://www.w3.org/2000/svg" xmlns:xlink="http://www.w3.org/1999/xlink" x="0px" y="0px"
	 viewBox="0 0 58.036 58.036" style="enable-background:new 0 0 58.036 58.036;" xml:space="preserve">
<g>
	<g>
		<path d="M24,28.518v-1c0-2.757-2.243-5-5-5s-5,2.243-5,5v1h2v-1c0-1.654,1.346-3,3-3s3,1.346,3,3v1H24z"/>
		<path d="M39,22.518c-2.757,0-5,2.243-5,5v1h2v-1c0-1.654,1.346-3,3-3s3,1.346,3,3v1h2v-1C44,24.761,41.757,22.518,39,22.518z"/>
		<path d="M53,45.518v-16.5c0-10.201-8.301-18.5-18.505-18.5H23.505C13.301,10.518,5,18.817,5,29.018v16.5H0v2h6h46h6.036v-2H53z
			 M7,45.518v-16.5c0-9.098,7.404-16.5,16.505-16.5h10.989c9.101,0,16.505,7.402,16.505,16.5v16.5H7z"/>
		<path d="M26,33.518h-3v2h2v2c0,2.206,1.794,4,4,4s4-1.794,4-4v-2h2v-2h-3H26z M31,37.518c0,1.103-0.897,2-2,2s-2-0.897-2-2v-2h4
			V37.518z"/>
	</g>
</g>
<g>
</g>
<g>
</g>
<g>
</g>
<g>
</g>
<g>
</g>
<g>
</g>
<g>
</g>
<g>
</g>
<g>
</g>
<g>
</g>
<g>
</g>
<g>
</g>
<g>
</g>
<g>
</g>
<g>
</g>
</svg>
